<?xml version="1.0" standalone="no"?>
<!DOCTYPE svg PUBLIC "-//W3C//DTD SVG 20010904//EN"
 "http://www.w3.org/TR/2001/REC-SVG-20010904/DTD/svg10.dtd">
<svg version="1.0" xmlns="http://www.w3.org/2000/svg"
 width="244.000000pt" height="300.000000pt" viewBox="0 0 244.000000 300.000000"
 preserveAspectRatio="xMidYMid meet">
<metadata>
Created by potrace 1.16, written by Peter Selinger 2001-2019
</metadata>
<g transform="translate(0.000000,300.000000) scale(0.100000,-0.100000)"
fill="#000000" stroke="none">
<path d="M1092 2903 c-48 -52 -131 -140 -184 -194 -85 -86 -103 -111 -100
-140 1 -3 -6 -6 -14 -6 -10 0 -11 4 -4 11 5 5 10 14 10 19 0 4 -19 -13 -41
-40 -23 -26 -46 -49 -50 -51 -5 -2 -9 -12 -9 -22 0 -10 -5 -22 -12 -26 -7 -4
-8 -3 -4 4 4 7 2 12 -3 12 -6 0 -11 -9 -11 -21 0 -11 4 -18 9 -14 5 3 13 0 17
-7 4 -7 4 -10 0 -6 -14 12 -35 -16 -25 -34 6 -11 5 -19 -3 -24 -7 -4 -8 -3 -4
4 4 7 2 12 -5 12 -7 0 -9 3 -6 7 4 3 1 13 -6 21 -10 13 -9 14 2 7 10 -6 12 -4
6 5 -5 9 -4 11 3 6 7 -4 10 -2 7 6 -3 8 -50 -29 -125 -101 -69 -65 -117 -118
-113 -125 3 -6 3 -8 -2 -4 -10 9 -105 -69 -105 -86 0 -6 -34 -45 -75 -86 -41
-41 -75 -79 -75 -85 0 -5 19 -30 42 -55 23 -25 39 -37 35 -28 -7 19 8 34 18
18 11 -17 24 -11 20 10 -2 12 0 18 6 15 5 -4 6 -11 3 -17 -4 -7 -2 -8 5 -4 6
4 14 0 17 -8 3 -9 10 -14 14 -11 5 3 11 1 14 -4 3 -5 -1 -11 -9 -15 -8 -3 -15
-1 -15 5 0 6 -6 9 -12 6 -7 -2 -21 0 -30 5 -25 12 -24 -14 1 -36 14 -13 21
-14 27 -5 5 8 3 10 -6 4 -9 -6 -11 -4 -5 5 6 10 15 5 34 -19 14 -18 61 -67
104 -110 58 -58 75 -80 63 -84 -11 -4 -13 -1 -10 11 5 15 4 15 -6 2 -10 -13
-11 -12 -6 3 4 11 2 16 -5 12 -6 -4 -13 3 -16 15 -3 13 -11 19 -20 16 -8 -3
-11 -1 -8 4 4 6 1 9 -7 8 -7 -2 -12 3 -10 11 2 9 -3 11 -13 7 -11 -4 -14 -2
-9 6 4 6 3 8 -4 5 -6 -5 -8 0 -5 12 3 11 -2 21 -11 24 -37 14 -13 -33 37 -74
28 -24 174 -166 322 -316 149 -150 273 -273 276 -273 3 0 6 7 6 15 0 9 -6 14
-14 11 -9 -4 -11 -1 -7 6 5 7 3 8 -6 3 -9 -6 -11 -4 -5 5 6 9 4 11 -5 5 -9 -6
-11 -4 -5 5 6 9 4 11 -5 5 -9 -6 -11 -4 -5 5 6 9 4 11 -5 5 -9 -6 -11 -4 -5 5
6 9 4 11 -5 5 -9 -6 -11 -4 -5 5 6 9 4 11 -5 5 -9 -6 -11 -4 -5 5 5 9 4 11 -4
6 -6 -4 -10 -3 -9 2 2 5 -14 27 -34 50 -21 23 -38 36 -38 30 0 -9 -3 -8 -9 2
-6 8 -7 18 -4 24 4 5 1 6 -7 1 -9 -6 -11 -4 -5 5 6 9 4 11 -5 5 -9 -6 -11 -4
-5 5 6 10 36 -16 108 -91 56 -57 101 -111 100 -120 0 -8 46 -64 103 -125 l103
-109 245 250 c135 138 245 256 246 263 0 7 -5 10 -10 7 -6 -4 -7 -11 -4 -17 5
-7 2 -8 -6 -3 -9 6 -11 4 -5 -5 5 -9 4 -11 -4 -6 -7 5 -10 2 -9 -5 2 -7 -4
-13 -12 -14 -8 -1 -14 -7 -12 -14 1 -7 -2 -10 -9 -5 -8 5 -9 3 -4 -6 6 -9 4
-11 -5 -5 -9 5 -11 4 -6 -3 5 -8 1 -10 -10 -5 -10 4 -15 2 -11 -3 3 -6 1 -16
-5 -24 -8 -13 -9 -12 -5 1 7 21 -30 20 -43 -1 -7 -12 -9 -10 -7 7 0 12 5 19
11 16 5 -4 6 -1 1 7 -5 9 -4 11 4 6 14 -9 41 11 37 27 -1 7 -1 8 2 4 2 -4 10
-3 18 4 8 6 11 16 7 22 -4 6 -1 7 7 2 9 -6 11 -4 5 5 -5 9 -4 11 3 6 8 -5 10
-1 6 11 -5 15 -4 16 5 3 9 -13 11 -13 12 0 1 8 1 19 0 23 -1 5 4 5 10 1 8 -5
9 -3 4 6 -6 9 -4 11 5 5 9 -6 11 -4 5 5 -6 9 -4 11 5 5 9 -6 11 -4 5 5 -6 9
-4 11 5 5 9 -6 11 -4 5 5 -6 9 -4 11 5 5 9 -6 11 -4 5 5 -6 9 -4 11 5 5 9 -6
11 -4 5 5 -6 9 -4 11 5 5 9 -6 11 -4 5 5 -6 9 -4 11 5 5 9 -6 11 -4 5 5 -6 9
-4 11 5 5 9 -6 11 -4 5 5 -6 9 -4 11 5 5 9 -6 11 -4 5 5 -6 9 -4 11 5 5 9 -6
11 -4 5 5 -5 9 -4 11 3 6 8 -5 10 -1 5 10 -5 13 -3 15 7 9 9 -6 11 -4 5 5 -6
9 -4 11 5 5 9 -6 11 -4 5 6 -5 8 -5 11 0 7 4 -4 14 0 22 10 9 11 12 12 11 3
-2 -8 -37 -50 -79 -95 -128 -137 -165 -179 -152 -175 7 2 57 48 111 102 73 72
101 94 105 83 4 -9 1 -15 -6 -13 -7 1 -11 -4 -9 -11 1 -8 -2 -11 -7 -7 -6 3
-15 -4 -21 -15 -6 -11 -16 -17 -22 -14 -7 5 -8 2 -3 -6 6 -9 4 -11 -5 -5 -9 6
-11 4 -5 -5 6 -9 4 -11 -5 -5 -9 6 -11 4 -5 -5 6 -9 4 -11 -5 -5 -9 6 -11 4
-5 -5 6 -9 4 -11 -5 -5 -9 6 -11 4 -5 -4 5 -9 14 -6 34 11 77 67 111 104 111
121 0 17 -2 18 -17 6 -15 -11 -15 -10 1 8 19 23 39 23 30 0 -2 -7 77 68 176
166 99 99 180 187 180 196 0 14 2 14 10 1 8 -12 10 -8 11 15 1 17 3 40 4 53 1
12 -2 22 -6 22 -5 0 -10 -9 -10 -20 -3 -39 -5 -45 -17 -43 -7 2 -12 -2 -12 -7
0 -6 -7 -10 -16 -10 -14 0 -14 -1 0 -16 19 -18 21 -28 4 -18 -7 5 -8 3 -3 -6
6 -9 4 -11 -5 -5 -9 6 -11 4 -5 -5 6 -9 4 -11 -5 -5 -9 6 -11 4 -5 -5 6 -9 4
-11 -4 -6 -9 6 -8 13 5 27 9 10 13 19 7 19 -20 0 -42 -35 -33 -50 14 -22 12
-30 -5 -24 -10 4 -15 0 -15 -11 0 -10 -5 -13 -12 -9 -7 5 -8 3 -3 -6 6 -9 4
-11 -5 -5 -9 6 -11 4 -5 -5 6 -9 4 -11 -5 -5 -9 6 -11 4 -5 -5 6 -9 4 -11 -5
-5 -9 6 -11 4 -5 -5 6 -9 4 -11 -5 -5 -9 6 -11 4 -5 -5 6 -9 4 -11 -5 -5 -9 6
-11 4 -5 -5 6 -9 4 -11 -4 -5 -9 5 0 21 33 54 43 44 64 79 31 51 -8 -7 -15 -9
-15 -4 0 13 16 35 26 37 5 1 8 6 6 10 -1 5 3 5 9 1 8 -5 9 -3 4 6 -5 9 -4 11
3 6 7 -4 12 -2 12 3 0 6 -5 11 -10 11 -16 0 -310 -291 -310 -307 0 -8 5 -11
10 -8 6 4 8 10 5 15 -3 5 -1 11 4 14 10 7 9 -9 -4 -37 -7 -17 -8 -17 -20 0
-12 16 -22 9 -112 -87 -54 -57 -178 -183 -275 -280 -98 -96 -178 -181 -178
-188 0 -7 4 -11 8 -8 4 2 19 -5 32 -16 14 -11 20 -17 13 -14 -6 4 -14 -2 -16
-11 -4 -14 -5 -13 -6 4 -2 34 -15 35 -46 3 -34 -36 -41 -37 -55 -7 -10 20 -10
20 3 4 16 -19 32 -24 21 -5 -5 7 -3 8 6 3 9 -6 11 -4 5 5 -6 9 -4 11 5 5 9 -6
11 -4 5 5 -6 9 -4 11 5 5 9 -6 11 -4 5 5 -6 9 -4 11 5 5 9 -6 11 -4 5 4 -5 9
-13 7 -29 -8 l-22 -21 -24 25 c-16 17 -27 22 -35 15 -8 -6 -18 -5 -30 4 -14
10 -15 15 -5 21 9 6 11 4 5 -5 -5 -8 -4 -11 3 -6 5 3 13 0 15 -6 4 -9 6 -9 6
-1 1 6 -15 27 -34 46 -32 32 -35 33 -41 14 -5 -16 -8 -17 -16 -6 -7 11 -8 11
-6 -2 2 -9 38 -54 82 -100 l78 -83 38 41 c28 30 40 37 44 26 4 -9 2 -11 -6 -7
-7 5 -8 3 -3 -6 6 -9 4 -11 -5 -5 -9 6 -11 4 -5 -5 6 -9 4 -11 -5 -5 -9 6 -11
4 -5 -5 6 -9 4 -11 -5 -5 -9 6 -11 4 -5 -5 6 -9 4 -11 -5 -5 -9 6 -11 4 -5 -5
6 -9 4 -11 -5 -5 -9 6 -11 4 -5 -5 6 -9 4 -11 -5 -5 -8 5 -11 4 -7 -1 3 -5 -3
-10 -13 -10 -10 0 -16 5 -13 10 4 5 1 6 -7 1 -9 -6 -11 -4 -5 5 6 9 4 11 -5 5
-9 -6 -11 -4 -5 5 5 9 4 11 -3 6 -8 -5 -10 -1 -5 11 3 10 2 15 -2 10 -11 -10
-56 33 -48 46 4 6 1 7 -7 2 -9 -6 -11 -4 -5 5 6 9 4 11 -5 5 -9 -6 -11 -4 -5
5 6 9 4 11 -5 5 -9 -6 -11 -4 -5 5 6 9 4 11 -5 5 -9 -6 -11 -4 -5 5 6 9 4 11
-5 5 -9 -6 -11 -4 -5 5 6 9 4 11 -5 5 -9 -6 -11 -4 -5 5 5 9 4 11 -4 6 -6 -4
-11 -4 -10 1 1 4 1 17 -1 28 l-1 20 -10 -20 c-7 -16 -8 -13 -5 12 2 18 -1 34
-7 36 -6 2 -3 6 7 10 11 5 15 3 10 -5 -5 -7 -3 -8 6 -3 9 6 11 4 5 -5 -6 -9
-4 -11 5 -5 8 5 11 4 6 -3 -3 -6 -2 -13 4 -17 5 -3 10 0 10 9 0 8 -31 47 -70
87 -38 41 -70 78 -70 83 0 5 -6 2 -12 -7 -12 -15 -24 -6 -112 78 -55 52 -96
98 -93 102 4 3 7 1 7 -6 0 -7 5 -9 12 -5 6 4 8 3 5 -3 -4 -6 0 -14 8 -17 11
-4 15 0 13 12 -4 21 -29 42 -42 35 -5 -4 -6 -1 -2 5 10 17 -83 105 -98 93 -17
-15 -47 7 -115 84 -63 72 -68 80 -51 90 6 4 7 -1 4 -12 -5 -15 -4 -16 6 -3 10
13 11 12 6 -3 -4 -12 -2 -16 6 -11 7 5 8 3 3 -6 -5 -9 -4 -11 3 -6 8 5 10 1 6
-11 -5 -15 -4 -16 6 -3 10 13 11 12 6 -3 -4 -12 -2 -16 6 -11 7 5 8 3 3 -6 -6
-9 -4 -11 5 -5 9 6 11 4 5 -5 -6 -9 -4 -11 5 -5 9 6 11 4 5 -5 -6 -9 -4 -11 5
-5 9 6 11 4 5 -5 -6 -9 -4 -11 5 -5 9 5 11 4 6 -4 -5 -7 -2 -10 6 -9 7 2 12
-4 10 -13 -3 -21 28 -34 42 -18 8 9 8 10 -1 5 -7 -4 -13 -2 -13 3 0 6 -14 23
-31 38 -17 16 -47 49 -66 76 -19 26 -38 45 -43 42 -4 -3 -10 5 -13 16 -3 12
-10 18 -16 14 -6 -3 -11 -2 -11 4 0 6 -11 21 -24 34 -20 20 -26 22 -30 10 -9
-23 -7 -29 5 -13 9 12 10 12 5 -4 -5 -13 -2 -17 9 -13 8 4 17 2 19 -2 13 -21
-39 -3 -53 19 -9 14 -11 21 -3 16 8 -5 12 -1 12 11 0 10 -18 31 -40 46 -36 26
-58 32 -53 15 2 -4 -4 -5 -13 -1 -8 3 -14 2 -12 -3 2 -5 0 -10 -5 -11 -17 -6
-19 -2 -6 14 12 14 12 16 0 8 -10 -6 -12 -4 -6 5 6 9 4 11 -4 5 -10 -6 -11 -3
-1 15 6 12 14 19 17 16 7 -7 75 83 69 93 -3 5 3 16 14 26 13 11 20 14 20 6 0
-7 5 -9 11 -5 6 3 7 9 3 13 -11 7 -14 52 -3 46 4 -3 10 2 13 11 3 8 11 12 17
8 8 -5 9 -3 4 6 -6 9 -4 11 5 5 9 -6 11 -4 5 5 -6 9 -4 11 5 5 8 -5 11 -4 6 3
-4 7 1 10 14 7 19 -4 24 5 21 34 -2 11 0 11 12 0 13 -12 13 -17 -5 -36 -11
-12 -24 -21 -27 -20 -15 5 -62 -43 -59 -60 3 -15 6 -15 26 7 12 13 22 20 22
16 0 -5 7 -2 17 5 15 13 15 12 2 -8 -10 -16 -16 -19 -22 -10 -6 8 -7 6 -3 -6
4 -12 2 -16 -6 -11 -7 4 -8 3 -4 -4 5 -8 2 -10 -9 -6 -11 5 -14 2 -9 -11 6
-15 12 -12 41 18 18 20 33 40 33 45 0 5 8 16 18 23 16 13 16 12 2 -6 -11 -16
-11 -17 0 -8 16 15 23 46 8 37 -18 -11 9 30 33 51 13 11 18 13 11 4 -6 -9 -8
-20 -4 -24 4 -5 2 -5 -5 -1 -6 3 -14 2 -17 -3 -4 -5 1 -8 9 -7 8 1 74 60 147
132 73 71 153 147 179 169 26 24 45 48 43 58 -3 19 12 23 18 5 3 -7 7 -5 11 6
4 11 3 15 -4 10 -8 -4 -9 1 -4 17 l7 24 -17 -23 c-9 -12 -21 -20 -26 -17 -5 4
-9 1 -9 -4 0 -6 5 -11 11 -11 8 0 8 -5 -1 -15 -7 -8 -17 -12 -22 -9 -5 3 -8
-2 -6 -11 2 -12 -5 -19 -22 -22 l-24 -4 22 21 c16 15 20 28 16 44 -3 13 -1 27
4 30 6 4 8 -3 5 -16 -5 -23 -5 -23 10 -3 11 14 12 24 5 32 -10 12 -4 17 15 14
5 -1 5 4 1 10 -4 8 -3 9 5 5 9 -6 9 -11 -1 -24 -11 -13 -11 -14 2 -10 8 2 15
11 15 19 0 8 4 20 9 27 6 10 11 9 22 -5 7 -10 14 -13 14 -6 0 6 -5 15 -10 18
-6 4 -7 11 -4 17 5 7 2 8 -6 3 -9 -6 -11 -4 -6 4 5 7 11 10 14 7 8 -9 42 25
42 41 0 8 5 11 12 7 7 -5 8 -3 3 6 -6 9 -4 11 5 5 9 -6 11 -4 5 5 -5 9 -4 11
4 6 6 -4 8 -13 4 -19 -4 -7 -8 -18 -9 -25 -2 -8 -10 -22 -20 -33 -13 -15 -14
-22 -5 -33 9 -11 9 -16 0 -22 -7 -4 -9 -3 -5 4 3 6 2 13 -4 17 -5 3 -10 -1
-10 -9 0 -18 -16 -21 -25 -6 -13 21 -24 9 -13 -15 6 -14 16 -25 22 -25 17 0
65 52 60 65 -3 7 0 16 7 21 8 5 10 3 4 -7 -4 -8 13 6 38 30 25 24 45 49 44 55
-1 5 3 10 10 11 6 0 15 4 20 9 5 5 3 6 -4 2 -8 -4 -13 -2 -13 5 0 8 -7 5 -20
-6 -10 -9 -19 -20 -18 -24 0 -3 0 -13 -1 -21 -1 -13 -3 -13 -10 -1 -8 12 -11
9 -17 -13 -4 -18 -9 -24 -14 -16 -5 8 4 26 24 48 17 19 30 39 28 44 -1 5 2 7
8 3 5 -3 13 1 16 9 3 9 10 13 15 10 5 -3 7 -10 4 -15 -13 -21 13 -7 40 21 24
25 27 32 15 43 -7 6 -10 7 -7 1 3 -6 0 -11 -8 -11 -10 0 -10 5 3 23 15 19 18
20 26 7 7 -14 11 -13 25 5 l16 21 32 -29 c17 -15 30 -30 27 -32 -2 -3 8 -15
23 -29 14 -13 22 -17 18 -9 -8 13 -7 13 8 1 10 -8 19 -12 20 -10 1 2 9 13 17
23 9 12 10 17 3 13 -7 -5 -21 1 -33 13 -20 20 -23 20 -34 5 -11 -15 -12 -15
-12 2 0 15 7 19 28 18 30 -1 71 -32 62 -47 -3 -4 0 -7 7 -6 7 2 13 -4 14 -12
0 -8 8 -14 18 -14 9 1 14 -3 10 -9 -4 -6 -1 -7 7 -2 8 5 11 4 7 -2 -8 -13 17
-36 28 -25 5 4 5 1 1 -6 -4 -7 -2 -20 6 -29 7 -9 13 -19 13 -22 0 -3 4 -5 8
-3 5 1 6 -2 2 -8 -10 -17 12 -11 26 7 10 11 10 14 2 9 -8 -4 -13 -2 -13 6 0 7
-59 72 -130 143 -171 170 -167 169 -288 38z m442 -1627 c-8 -21 12 -28 26 -10
10 12 15 12 21 2 10 -15 -169 -204 -190 -200 -7 2 -11 0 -8 -5 3 -4 -1 -17 -9
-28 -10 -13 -14 -15 -14 -4 0 12 -2 12 -10 -1 -6 -9 -10 -10 -10 -3 0 7 16 25
35 40 19 15 35 31 35 36 0 16 -21 5 -59 -31 -29 -28 -39 -33 -38 -20 1 10 15
31 31 46 16 15 26 21 21 13 -5 -9 -3 -12 6 -9 8 3 13 10 12 16 -2 7 4 9 14 5
9 -4 14 -2 10 3 -3 6 6 9 23 8 22 -1 27 2 23 13 -4 11 -8 11 -13 3 -6 -9 -9
-9 -14 -1 -4 6 -13 8 -19 5 -7 -4 6 12 27 34 22 23 42 39 45 37 4 -2 17 12 30
31 25 36 34 43 25 20z"/>
<path d="M1345 2803 c-16 -12 -16 -14 -3 -10 11 4 21 0 27 -11 16 -29 132
-142 141 -137 5 3 18 -9 30 -26 14 -18 28 -28 37 -25 8 3 11 2 8 -3 -3 -5 -1
-12 5 -16 6 -4 8 -10 6 -14 -3 -4 14 -27 38 -50 36 -35 44 -40 50 -26 5 13 2
16 -9 11 -9 -3 -14 -2 -11 3 8 12 -19 33 -30 23 -5 -4 -1 2 9 14 9 11 17 27
17 35 0 8 -27 41 -59 73 -42 42 -64 57 -76 52 -10 -3 -15 -12 -11 -21 3 -8 0
-17 -6 -21 -6 -4 -8 -3 -5 3 4 6 -5 20 -18 33 -13 13 -22 26 -20 30 6 9 -44
65 -75 83 -22 14 -27 14 -45 0z"/>
<path d="M1015 2425 c-37 -16 -80 -62 -88 -92 -3 -15 5 -34 30 -62 l34 -40
-31 -88 c-51 -144 -102 -401 -104 -521 l-1 -103 37 -35 c21 -19 46 -34 55 -33
16 0 15 2 -2 9 -21 9 -21 9 27 14 8 1 17 36 24 101 6 55 14 123 17 150 6 49 6
49 -4 10 -5 -22 -16 -89 -24 -150 -13 -100 -14 -103 -10 -30 6 91 37 269 43
243 2 -10 8 -18 13 -18 6 0 7 5 4 10 -10 16 1 11 16 -7 12 -15 12 -16 -1 -8
-16 9 123 -123 180 -172 60 -51 99 -75 111 -67 8 4 9 3 5 -4 -8 -13 83 -63
111 -61 10 0 3 5 -16 10 -52 16 -31 20 24 5 35 -9 44 -14 30 -18 -11 -2 1 -4
26 -4 42 1 45 3 47 30 2 15 -3 36 -10 45 -12 14 -11 14 5 2 9 -7 18 -25 18
-40 2 -24 2 -25 6 -3 5 28 -24 65 -44 57 -8 -2 -11 -1 -8 5 3 5 -3 14 -14 19
-25 14 -34 14 -26 1 3 -6 -1 -7 -9 -4 -9 3 -14 9 -12 13 3 4 -28 23 -68 44
-50 25 -107 69 -177 134 l-104 97 80 -82 c44 -45 77 -82 75 -82 -3 0 -46 41
-95 92 -50 50 -81 85 -71 77 18 -12 19 -12 14 2 -5 12 2 20 20 28 25 11 26 10
8 -4 -23 -17 -14 -20 15 -4 11 5 16 15 13 21 -4 7 -3 8 4 4 12 -7 95 44 108
67 5 7 0 6 -12 -3 -17 -14 -18 -14 -6 2 8 9 19 15 26 12 18 -7 133 120 147
163 6 19 8 49 5 68 -9 49 -80 132 -137 160 -55 28 -72 32 -43 10 10 -8 16 -15
12 -15 -4 0 -19 11 -34 25 -15 14 -34 25 -43 24 -11 0 -8 -3 7 -9 36 -15 26
-17 -24 -6 -40 10 -43 12 -22 18 14 5 9 5 -12 2 -19 -4 -55 -9 -80 -13 -25 -4
-52 -11 -60 -15 -12 -7 -13 -6 -3 4 7 8 32 17 55 21 41 6 41 7 8 7 -19 0 -48
-6 -65 -13z m148 -198 c-6 -29 -14 -61 -17 -72 -4 -11 1 -5 10 14 8 19 18 56
21 83 7 55 15 58 82 28 51 -23 55 -24 45 -7 -6 8 -3 8 9 -2 15 -12 15 -16 2
-40 -15 -27 -132 -157 -119 -132 4 9 2 12 -7 9 -8 -3 -13 -10 -12 -16 2 -7 -4
-9 -14 -5 -10 4 -14 2 -9 -5 3 -6 1 -14 -5 -18 -7 -4 -9 -3 -5 4 4 7 -1 10
-14 9 -12 -1 -23 -12 -29 -29 -6 -15 -12 -28 -15 -28 -3 0 7 30 21 68 44 116
54 156 50 197 -4 35 -4 37 6 17 8 -17 8 -38 0 -75z"/>
<path d="M2068 686 c-29 -39 -47 -152 -48 -298 0 -32 -5 -40 -32 -54 -44 -22
-88 -64 -88 -83 0 -9 9 -1 20 17 31 51 31 37 -1 -22 l-29 -54 35 -31 c42 -36
73 -39 106 -10 13 11 18 17 10 13 -9 -5 -7 2 5 18 10 14 21 24 23 22 2 -2 -2
-11 -10 -21 -12 -15 -12 -16 3 -10 12 4 21 -1 28 -16 11 -21 11 -21 -4 -3 -9
11 -16 15 -16 9 0 -15 49 -53 68 -53 9 0 25 9 37 20 20 19 23 19 54 4 47 -24
154 -3 136 26 -3 5 0 12 6 16 8 5 9 3 4 -7 -8 -12 -6 -12 8 0 9 7 17 21 17 31
0 9 9 25 20 35 24 22 26 40 3 31 -14 -6 -14 -3 3 16 l19 22 -25 -16 c-15 -9
-24 -23 -22 -34 2 -15 1 -16 -6 -5 -7 10 -14 11 -31 2 -12 -7 -19 -16 -16 -22
4 -5 3 -9 -2 -8 -4 1 -21 -3 -36 -9 -16 -7 -34 -12 -40 -11 -7 0 -2 4 11 10
13 5 21 13 18 18 -3 5 2 15 12 22 15 13 16 12 3 -3 -24 -31 6 -19 33 13 30 35
33 71 9 90 -15 11 -16 11 -5 -1 14 -17 16 -49 2 -70 -7 -11 -8 -5 -4 18 5 24
2 38 -12 54 -11 12 -13 18 -6 14 17 -10 15 9 -3 24 -26 21 -72 2 -120 -52 -41
-45 -45 -54 -43 -97 l2 -46 3 47 c3 38 11 55 44 90 l41 43 -36 -44 c-28 -35
-36 -54 -36 -85 0 -23 -5 -48 -10 -56 -6 -10 -10 -11 -10 -2 0 16 -27 16 -33
0 -2 -7 -9 4 -16 25 -12 35 -11 43 15 100 26 56 29 71 27 162 -2 135 -8 184
-24 198 -9 8 -8 6 1 -8 14 -18 14 -19 -2 -7 -10 8 -17 17 -16 20 4 38 -19 42
-44 8z"/>
<path d="M1489 673 c-1 -5 -1 -11 -1 -15 1 -3 -6 -12 -16 -20 -15 -12 -16 -11
-3 5 20 25 -5 22 -32 -4 -12 -12 -16 -19 -10 -15 9 5 11 2 6 -11 -10 -26 -44
-83 -50 -83 -3 0 4 16 16 36 29 49 26 58 -4 10 -13 -22 -22 -43 -20 -47 3 -4
-11 -55 -30 -114 -19 -58 -36 -127 -37 -153 -1 -47 -1 -47 -5 -7 -3 21 3 66
12 98 9 32 15 61 12 63 -7 7 -37 -118 -39 -164 -1 -24 -6 -46 -12 -49 -5 -3
-6 -1 -3 5 5 7 -6 8 -32 5 -39 -5 -40 -5 -44 28 -2 19 -3 15 -2 -10 2 -28 0
-39 -6 -30 -14 23 -10 75 7 89 8 8 14 9 13 4 -1 -5 -1 -16 0 -24 1 -13 2 -13
11 0 6 10 10 11 10 3 0 -7 4 -13 9 -13 6 0 9 20 8 45 -2 46 8 49 16 5 l4 -25
2 27 c1 31 -39 68 -73 68 -20 0 -86 -56 -86 -73 0 -4 12 5 28 21 15 15 19 18
9 6 -22 -27 -40 -144 -24 -159 7 -7 7 -5 2 5 -5 9 -4 12 1 7 5 -5 9 -14 9 -20
1 -7 7 -11 14 -9 7 1 10 -2 6 -8 -3 -5 6 -15 20 -22 22 -10 35 -9 71 4 l45 16
14 -32 c15 -33 49 -76 60 -76 3 0 3 5 -1 12 -4 7 -3 8 5 4 6 -4 9 -11 6 -16
-10 -17 40 -34 100 -34 61 1 131 26 120 44 -3 5 0 12 6 16 8 5 9 3 4 -6 -5 -8
-3 -11 6 -8 8 3 14 10 14 16 0 5 4 14 9 19 5 5 6 3 2 -4 -25 -44 58 29 94 82
7 11 -6 0 -29 -25 l-42 -45 38 51 c35 47 62 62 49 28 -3 -8 5 -21 19 -30 22
-14 29 -14 67 -2 24 8 43 21 44 29 0 8 4 22 8 32 11 22 1 84 -16 106 -7 9 -3
6 10 -7 26 -27 30 -17 4 13 -28 33 -93 71 -77 45 3 -5 -3 -10 -13 -10 -27 0
-80 -56 -88 -94 -3 -17 -22 -51 -41 -76 l-35 -45 40 44 c22 24 43 59 46 76 4
18 16 41 29 51 22 19 22 19 5 -2 -10 -11 -21 -34 -24 -52 -4 -17 -28 -54 -56
-84 -27 -29 -47 -47 -43 -40 8 15 0 15 -26 1 -11 -5 -17 -14 -14 -19 3 -5 0
-12 -6 -16 -7 -4 -9 -3 -6 3 4 6 -14 8 -46 6 -75 -6 -113 20 -124 84 -12 71
-6 185 12 234 26 70 28 88 5 40 -25 -53 -43 -168 -36 -231 l5 -45 -10 40 c-13
51 3 173 30 235 11 25 34 61 51 80 17 19 28 29 25 22 -5 -10 -2 -13 11 -10 11
2 19 10 19 17 0 18 21 26 30 12 4 -7 -1 -9 -12 -5 -15 5 -16 4 -3 -5 20 -14
43 -14 34 1 -4 7 -3 8 5 4 6 -4 8 -13 4 -19 -4 -7 -6 -19 -5 -28 2 -9 -5 -22
-15 -29 -15 -12 -16 -12 -5 0 6 8 12 18 12 24 0 5 -6 1 -14 -9 -15 -20 -13
-65 4 -109 16 -43 19 -29 4 21 -8 25 -12 48 -10 51 3 2 12 -24 22 -57 19 -68
25 -75 55 -66 17 6 19 9 8 16 -10 6 -11 9 -1 9 21 0 16 158 -8 205 -19 40 -19
40 0 16 11 -13 20 -19 20 -14 0 5 -17 28 -38 51 -32 35 -45 42 -75 42 -21 0
-38 -3 -38 -7z"/>
<path d="M295 589 c-58 -6 -170 -34 -249 -62 -41 -14 -49 -29 -39 -79 5 -25
10 -28 47 -29 l41 -2 -35 -7 -35 -8 40 1 c25 1 39 6 38 14 -2 7 3 10 10 7 7
-2 30 2 50 11 47 19 47 20 47 -11 0 -16 -10 -34 -25 -46 -26 -20 -32 -52 -15
-78 6 -10 8 -4 4 21 -4 20 -2 39 2 42 5 3 10 -15 10 -40 1 -27 8 -49 17 -56
11 -8 17 -32 20 -77 l3 -65 2 70 c1 45 -3 76 -10 85 -10 12 -9 11 4 0 13 -12
17 -39 21 -122 5 -115 14 -138 53 -138 30 0 35 34 13 80 -17 33 -32 163 -18
155 3 -2 7 -30 8 -62 1 -33 9 -73 20 -93 10 -19 16 -42 14 -50 -4 -13 -3 -13
5 -1 7 10 4 25 -9 52 -24 45 -25 147 -2 127 7 -6 11 -13 8 -16 -6 -7 15 -32
27 -32 5 0 6 6 2 13 -4 7 -3 9 2 4 5 -5 9 -14 9 -20 0 -5 6 -12 14 -15 9 -3
11 0 6 9 -5 8 -4 11 1 6 5 -5 9 -14 9 -20 0 -5 6 -12 14 -15 9 -3 11 0 6 8 -5
9 -4 11 4 6 6 -4 9 -12 6 -17 -4 -5 2 -12 12 -16 10 -3 29 -15 42 -25 13 -10
29 -18 35 -18 6 0 4 5 -4 11 -13 9 -13 10 0 6 8 -2 14 -10 12 -16 -1 -7 28
-26 65 -43 56 -26 83 -32 157 -34 80 -3 87 -2 82 14 -5 14 -3 14 9 -2 8 -11
15 -15 15 -9 0 17 -33 39 -76 51 -51 15 -57 15 -48 0 4 -7 3 -8 -5 -4 -6 4 -8
12 -5 18 5 8 1 9 -10 5 -10 -4 -15 -3 -11 3 4 6 -14 19 -38 29 -25 11 -63 31
-86 45 -48 30 -59 33 -40 8 11 -14 10 -13 -9 2 -23 20 -30 32 -12 21 6 -3 10
-4 10 -1 0 2 -27 24 -61 47 l-60 43 31 16 c17 9 27 19 23 23 -4 5 0 5 8 2 9
-3 26 3 40 15 13 12 18 19 12 15 -18 -9 -16 0 4 16 11 10 14 10 9 2 -10 -17 2
-16 20 1 17 18 18 30 2 20 -7 -5 -3 5 10 20 12 16 22 36 23 45 0 9 3 11 5 4 3
-7 0 -22 -6 -34 -7 -12 -7 -19 -2 -15 6 3 15 20 21 36 5 17 6 28 2 25 -5 -3
-19 12 -30 33 l-21 37 26 -30 c18 -21 22 -23 15 -8 -34 67 -168 108 -306 92z
m193 -92 c-1 -2 3 -11 10 -20 17 -20 -6 -58 -54 -88 -19 -11 -32 -25 -29 -29
3 -5 0 -12 -6 -16 -8 -5 -9 -3 -4 6 6 10 4 11 -11 5 -10 -5 -35 -9 -54 -9 -33
-1 -35 1 -32 29 9 105 19 115 123 115 45 0 58 3 53 13 -4 6 -4 9 0 5 4 -3 6
-8 4 -11z"/>
<path d="M1001 356 c-13 -14 -27 -23 -32 -21 -4 3 -5 -4 -2 -15 5 -18 8 -16
27 13 12 17 31 33 41 34 18 3 18 2 -1 -6 -12 -5 -31 -26 -43 -46 -22 -37 -34
-40 -36 -7 -5 63 -4 62 -37 61 l-33 -1 30 -8 30 -8 -27 -2 c-28 -3 -44 -5 -53
-10 -3 -1 -9 -3 -14 -4 -17 -2 -21 -13 -26 -72 -3 -32 -8 -67 -11 -77 -6 -17
-7 -17 -21 3 -11 15 -14 36 -10 66 6 60 -18 80 -101 82 -57 2 -61 0 -86 -32
-30 -41 -34 -90 -8 -120 17 -21 17 -21 -5 -2 -12 10 -24 32 -26 50 l-4 31 -1
-31 c-3 -60 94 -120 128 -79 11 13 17 11 47 -15 38 -34 37 -34 64 -19 11 5 17
15 13 22 -4 7 -3 8 2 4 5 -5 9 -14 9 -19 0 -21 26 -20 32 1 3 11 8 19 12 17 3
-2 7 13 8 33 1 21 7 48 13 62 10 22 10 21 6 -11 -2 -19 -7 -44 -11 -55 -5 -14
-4 -16 3 -6 7 10 14 11 31 2 12 -7 27 -9 34 -5 21 12 57 47 57 56 0 5 -12 -4
-26 -19 -18 -20 -17 -15 6 14 45 61 50 61 50 -1 0 -30 5 -58 10 -61 6 -3 10
-11 10 -18 0 -6 -7 -2 -15 9 -8 10 -15 38 -15 62 0 24 -4 41 -8 38 -4 -2 -6
-23 -4 -45 4 -42 47 -101 73 -101 8 0 5 6 -7 15 -14 11 -15 14 -3 9 17 -5 19
-1 35 122 5 38 -15 104 -32 104 -2 0 0 -9 6 -19 11 -22 13 -126 2 -153 -4 -10
-7 20 -8 65 -1 45 -3 93 -6 107 -6 34 -38 37 -67 6z"/>
</g>
</svg>
